# Made in Blockbench 4.12.6
mtllib item.mtl

o cube
v -0.15625 0.28125 0.4375
v -0.15625 0.53125 0.4375
v -0.15625 0.53125 0.3125
v -0.15625 0.28125 0.3125
v -0.03125 0.53125 0.3125
v -0.03125 0.28125 0.3125
v -0.03125 0.53125 0.4375
v -0.03125 0.28125 0.4375
v 0.4375 0.28125 1.15625
v 0.4375 0.53125 1.15625
v 0.3125 0.53125 1.15625
v 0.3125 0.28125 1.15625
v 0.3125 0.53125 1.03125
v 0.3125 0.28125 1.03125
v 0.4375 0.53125 1.03125
v 0.4375 0.28125 1.03125
v 1.15625 0.28125 0.5625
v 1.15625 0.53125 0.5625
v 1.15625 0.53125 0.6875
v 1.15625 0.28125 0.6875
v 1.03125 0.53125 0.6875
v 1.03125 0.28125 0.6875
v 1.03125 0.53125 0.5625
v 1.03125 0.28125 0.5625
v 0.5625 0.28125 -0.15625
v 0.5625 0.53125 -0.15625
v 0.6875 0.53125 -0.15625
v 0.6875 0.28125 -0.15625
v 0.6875 0.53125 -0.03125
v 0.6875 0.28125 -0.03125
v 0.5625 0.53125 -0.03125
v 0.5625 0.28125 -0.03125
vt 0.125 0.625
vt 0.125 0.875
vt 0 0.875
vt 0 0.625
vt 0.125 0.625
vt 0.125 0.875
vt 0 0.875
vt 0 0.625
vt 0.125 0.625
vt 0.125 0.875
vt 0 0.875
vt 0 0.625
vt 0.125 0.625
vt 0.125 0.875
vt 0 0.875
vt 0 0.625
vt 0 0.5
vt 0.125 0.5
vt 0.125 0.625
vt 0 0.625
vt 0 0.875
vt 0.125 0.875
vt 0.125 1
vt 0 1
vt 0.125 0.625
vt 0.125 0.875
vt 0 0.875
vt 0 0.625
vt 0.125 0.625
vt 0.125 0.875
vt 0 0.875
vt 0 0.625
vt 0.125 0.625
vt 0.125 0.875
vt 0 0.875
vt 0 0.625
vt 0.125 0.625
vt 0.125 0.875
vt 0 0.875
vt 0 0.625
vt 0 0.5
vt 0.125 0.5
vt 0.125 0.625
vt 0 0.625
vt 0 0.875
vt 0.125 0.875
vt 0.125 1
vt 0 1
vt 0.125 0.625
vt 0.125 0.875
vt 0 0.875
vt 0 0.625
vt 0.125 0.625
vt 0.125 0.875
vt 0 0.875
vt 0 0.625
vt 0.125 0.625
vt 0.125 0.875
vt 0 0.875
vt 0 0.625
vt 0.125 0.625
vt 0.125 0.875
vt 0 0.875
vt 0 0.625
vt 0 0.5
vt 0.125 0.5
vt 0.125 0.625
vt 0 0.625
vt 0 0.875
vt 0.125 0.875
vt 0.125 1
vt 0 1
vt 0.125 0.625
vt 0.125 0.875
vt 0 0.875
vt 0 0.625
vt 0.125 0.625
vt 0.125 0.875
vt 0 0.875
vt 0 0.625
vt 0.125 0.625
vt 0.125 0.875
vt 0 0.875
vt 0 0.625
vt 0.125 0.625
vt 0.125 0.875
vt 0 0.875
vt 0 0.625
vt 0 0.5
vt 0.125 0.5
vt 0.125 0.625
vt 0 0.625
vt 0 0.875
vt 0.125 0.875
vt 0.125 1
vt 0 1
vn -1 0 0
vn 0 0 -1
vn 1 0 0
vn 0 0 1
vn 0 -1 0
vn 0 1 0
vn 0 0 1
vn -1 0 0
vn 0 0 -1
vn 1 0 0
vn 0 -1 0
vn 0 1 0
vn 1 0 0
vn 0 0 1
vn -1 0 0
vn 0 0 -1
vn 0 -1 0
vn 0 1 0
vn 0 0 -1
vn 1 0 0
vn 0 0 1
vn -1 0 0
vn 0 -1 0
vn 0 1 0
usemtl m_0
f 1/1/1 2/2/1 3/3/1 4/4/1
f 4/5/2 3/6/2 5/7/2 6/8/2
f 6/9/3 5/10/3 7/11/3 8/12/3
f 8/13/4 7/14/4 2/15/4 1/16/4
f 4/17/5 6/18/5 8/19/5 1/20/5
f 5/21/6 3/22/6 2/23/6 7/24/6
f 9/25/7 10/26/7 11/27/7 12/28/7
f 12/29/8 11/30/8 13/31/8 14/32/8
f 14/33/9 13/34/9 15/35/9 16/36/9
f 16/37/10 15/38/10 10/39/10 9/40/10
f 12/41/11 14/42/11 16/43/11 9/44/11
f 13/45/12 11/46/12 10/47/12 15/48/12
f 17/49/13 18/50/13 19/51/13 20/52/13
f 20/53/14 19/54/14 21/55/14 22/56/14
f 22/57/15 21/58/15 23/59/15 24/60/15
f 24/61/16 23/62/16 18/63/16 17/64/16
f 20/65/17 22/66/17 24/67/17 17/68/17
f 21/69/18 19/70/18 18/71/18 23/72/18
f 25/73/19 26/74/19 27/75/19 28/76/19
f 28/77/20 27/78/20 29/79/20 30/80/20
f 30/81/21 29/82/21 31/83/21 32/84/21
f 32/85/22 31/86/22 26/87/22 25/88/22
f 28/89/23 30/90/23 32/91/23 25/92/23
f 29/93/24 27/94/24 26/95/24 31/96/24
o cube
v -0.03125 0.25 0.09375
v -0.03125 0.75 0.09375
v -0.03125 0.75 -0.03125
v -0.03125 0.25 -0.03125
v 0.09375 0.75 -0.03125
v 0.09375 0.25 -0.03125
v 0.09375 0.75 0.09375
v 0.09375 0.25 0.09375
v 0.09375 0.25 1.03125
v 0.09375 0.75 1.03125
v -0.03125 0.75 1.03125
v -0.03125 0.25 1.03125
v -0.03125 0.75 0.90625
v -0.03125 0.25 0.90625
v 0.09375 0.75 0.90625
v 0.09375 0.25 0.90625
v 1.03125 0.25 0.90625
v 1.03125 0.75 0.90625
v 1.03125 0.75 1.03125
v 1.03125 0.25 1.03125
v 0.90625 0.75 1.03125
v 0.90625 0.25 1.03125
v 0.90625 0.75 0.90625
v 0.90625 0.25 0.90625
v 0.90625 0.25 -0.03125
v 0.90625 0.75 -0.03125
v 1.03125 0.75 -0.03125
v 1.03125 0.25 -0.03125
v 1.03125 0.75 0.09375
v 1.03125 0.25 0.09375
v 0.90625 0.75 0.09375
v 0.90625 0.25 0.09375
vt 0.125 0.5
vt 0.125 1
vt 0 1
vt 0 0.5
vt 0.125 0.5
vt 0.125 1
vt 0 1
vt 0 0.5
vt 0.125 0.5
vt 0.125 1
vt 0 1
vt 0 0.5
vt 0.125 0.5
vt 0.125 1
vt 0 1
vt 0 0.5
vt 0 0.5
vt 0.125 0.5
vt 0.125 0.625
vt 0 0.625
vt 0 0.875
vt 0.125 0.875
vt 0.125 1
vt 0 1
vt 0.125 0.5
vt 0.125 1
vt 0 1
vt 0 0.5
vt 0.125 0.5
vt 0.125 1
vt 0 1
vt 0 0.5
vt 0.125 0.5
vt 0.125 1
vt 0 1
vt 0 0.5
vt 0.125 0.5
vt 0.125 1
vt 0 1
vt 0 0.5
vt 0 0.5
vt 0.125 0.5
vt 0.125 0.625
vt 0 0.625
vt 0 0.875
vt 0.125 0.875
vt 0.125 1
vt 0 1
vt 0.125 0.5
vt 0.125 1
vt 0 1
vt 0 0.5
vt 0.125 0.5
vt 0.125 1
vt 0 1
vt 0 0.5
vt 0.125 0.5
vt 0.125 1
vt 0 1
vt 0 0.5
vt 0.125 0.5
vt 0.125 1
vt 0 1
vt 0 0.5
vt 0 0.5
vt 0.125 0.5
vt 0.125 0.625
vt 0 0.625
vt 0 0.875
vt 0.125 0.875
vt 0.125 1
vt 0 1
vt 0.125 0.5
vt 0.125 1
vt 0 1
vt 0 0.5
vt 0.125 0.5
vt 0.125 1
vt 0 1
vt 0 0.5
vt 0.125 0.5
vt 0.125 1
vt 0 1
vt 0 0.5
vt 0.125 0.5
vt 0.125 1
vt 0 1
vt 0 0.5
vt 0 0.5
vt 0.125 0.5
vt 0.125 0.625
vt 0 0.625
vt 0 0.875
vt 0.125 0.875
vt 0.125 1
vt 0 1
vn -1 0 0
vn 0 0 -1
vn 1 0 0
vn 0 0 1
vn 0 -1 0
vn 0 1 0
vn 0 0 1
vn -1 0 0
vn 0 0 -1
vn 1 0 0
vn 0 -1 0
vn 0 1 0
vn 1 0 0
vn 0 0 1
vn -1 0 0
vn 0 0 -1
vn 0 -1 0
vn 0 1 0
vn 0 0 -1
vn 1 0 0
vn 0 0 1
vn -1 0 0
vn 0 -1 0
vn 0 1 0
usemtl m_0
f 33/97/25 34/98/25 35/99/25 36/100/25
f 36/101/26 35/102/26 37/103/26 38/104/26
f 38/105/27 37/106/27 39/107/27 40/108/27
f 40/109/28 39/110/28 34/111/28 33/112/28
f 36/113/29 38/114/29 40/115/29 33/116/29
f 37/117/30 35/118/30 34/119/30 39/120/30
f 41/121/31 42/122/31 43/123/31 44/124/31
f 44/125/32 43/126/32 45/127/32 46/128/32
f 46/129/33 45/130/33 47/131/33 48/132/33
f 48/133/34 47/134/34 42/135/34 41/136/34
f 44/137/35 46/138/35 48/139/35 41/140/35
f 45/141/36 43/142/36 42/143/36 47/144/36
f 49/145/37 50/146/37 51/147/37 52/148/37
f 52/149/38 51/150/38 53/151/38 54/152/38
f 54/153/39 53/154/39 55/155/39 56/156/39
f 56/157/40 55/158/40 50/159/40 49/160/40
f 52/161/41 54/162/41 56/163/41 49/164/41
f 53/165/42 51/166/42 50/167/42 55/168/42
f 57/169/43 58/170/43 59/171/43 60/172/43
f 60/173/44 59/174/44 61/175/44 62/176/44
f 62/177/45 61/178/45 63/179/45 64/180/45
f 64/181/46 63/182/46 58/183/46 57/184/46
f 60/185/47 62/186/47 64/187/47 57/188/47
f 61/189/48 59/190/48 58/191/48 63/192/48
o cube
v 0.71875 0.375 0.625
v 0.71875 0.375 0.375
v 0.71875 0.25 0.625
v 0.71875 0.25 0.375
v 0.28125 0.375 0.625
v 0.28125 0.375 0.375
v 0.28125 0.25 0.625
v 0.28125 0.25 0.375
v 0.875 1 0.875
v 0.875 1 0.125
v 0.875 0.25 0.875
v 0.875 0.25 0.125
v 0.125 1 0.875
v 0.125 1 0.125
v 0.125 0.25 0.875
v 0.125 0.25 0.125
v 0.9375 0.25 0.9375
v 0.9375 0.25 0.0625
v 0.9375 0 0.9375
v 0.9375 0 0.0625
v 0.0625 0.25 0.9375
v 0.0625 0.25 0.0625
v 0.0625 0 0.9375
v 0.0625 0 0.0625
vt 0.875 0.03125
vt 0.875 0.09375
vt 1 0.09375
vt 1 0.03125
vt 0.875 0.03125
vt 0.875 0.09375
vt 1 0.09375
vt 1 0.03125
vt 1 0.3125
vt 0.875 0.3125
vt 0.875 0.09375
vt 1 0.09375
vt 0.8125 0.3125
vt 0.875 0.3125
vt 0.875 0.09375
vt 0.8125 0.09375
vt 0.8125 0.3125
vt 0.875 0.3125
vt 0.875 0.09375
vt 0.8125 0.09375
vt 0.8125 0
vt 0.8125 0.375
vt 0.4375 0.375
vt 0.4375 0
vt 0.8125 0
vt 0.8125 0.375
vt 0.4375 0.375
vt 0.4375 0
vt 0.8125 0
vt 0.8125 0.375
vt 0.4375 0.375
vt 0.4375 0
vt 0.8125 0
vt 0.8125 0.375
vt 0.4375 0.375
vt 0.4375 0
vt 0.8125 0
vt 0.8125 0.375
vt 0.4375 0.375
vt 0.4375 0
vt 0.4375 0.4375
vt 0.4375 0.5625
vt 0 0.5625
vt 0 0.4375
vt 0.4375 0.4375
vt 0.4375 0.5625
vt 0 0.5625
vt 0 0.4375
vt 0.4375 0.5625
vt 0.4375 1
vt 0 1
vt 0 0.5625
vt 0.4375 0
vt 0.4375 0.4375
vt 0 0.4375
vt 0 0
vt 0.4375 0.4375
vt 0.4375 0.5625
vt 0 0.5625
vt 0 0.4375
vt 0.4375 0.4375
vt 0.4375 0.5625
vt 0 0.5625
vt 0 0.4375
vn 1 0 0
vn -1 0 0
vn 0 1 0
vn 0 0 1
vn 0 0 -1
vn 1 0 0
vn -1 0 0
vn 0 1 0
vn 0 0 1
vn 0 0 -1
vn 1 0 0
vn -1 0 0
vn 0 1 0
vn 0 -1 0
vn 0 0 1
vn 0 0 -1
usemtl m_1
f 68/193/49 66/194/49 65/195/49 67/196/49
f 71/197/50 69/198/50 70/199/50 72/200/50
f 65/201/51 66/202/51 70/203/51 69/204/51
f 67/205/52 65/206/52 69/207/52 71/208/52
f 72/209/53 70/210/53 66/211/53 68/212/53
f 76/213/54 74/214/54 73/215/54 75/216/54
f 79/217/55 77/218/55 78/219/55 80/220/55
f 73/221/56 74/222/56 78/223/56 77/224/56
f 75/225/57 73/226/57 77/227/57 79/228/57
f 80/229/58 78/230/58 74/231/58 76/232/58
f 84/233/59 82/234/59 81/235/59 83/236/59
f 87/237/60 85/238/60 86/239/60 88/240/60
f 81/241/61 82/242/61 86/243/61 85/244/61
f 84/245/62 83/246/62 87/247/62 88/248/62
f 83/249/63 81/250/63 85/251/63 87/252/63
f 88/253/64 86/254/64 82/255/64 84/256/64
o cube
v 0.75 0.375 0.24999999999999994
v 0.24999999999999994 0.375 0.25
v 0.24999999999999994 0.875 0.25
v 0.75 0.875 0.24999999999999994
v 0.75 0.375 0.75
v 0.75 0.875 0.75
v 0.25 0.375 0.75
v 0.25 0.875 0.75
vt 0.5 0.5
vt 1 0.5
vt 1 1
vt 0.5 1
vt 0 0.5
vt 0.5 0.5
vt 0.5 1
vt 0 1
vt 0 0.5
vt 0.5 0.5
vt 0.5 1
vt 0 1
vt 0 0.5
vt 0.5 0.5
vt 0.5 1
vt 0 1
vt 0 0
vt 0.5 0
vt 0.5 0.5
vt 0 0.5
vt 0.5 0
vt 1 0
vt 1 0.5
vt 0.5 0.5
vn -1.2246467991473532e-16 0 -1
vn 1 0 -1.2246467991473532e-16
vn 1.2246467991473532e-16 0 1
vn -1 0 1.2246467991473532e-16
vn 0 1 0
vn 0 -1 0
usemtl m_0
f 89/257/65 90/258/65 91/259/65 92/260/65
f 93/261/66 89/262/66 92/263/66 94/264/66
f 95/265/67 93/266/67 94/267/67 96/268/67
f 90/269/68 95/270/68 96/271/68 91/272/68
f 96/273/69 94/274/69 92/275/69 91/276/69
f 90/277/70 89/278/70 93/279/70 95/280/70