# Made in Blockbench 4.12.6
mtllib blaze_rods.mtl

o cube
v -0.03125 0.5 0.09375
v -0.03125 1 0.09375
v -0.03125 1 -0.03125
v -0.03125 0.5 -0.03125
v 0.09375 1 -0.03125
v 0.09375 0.5 -0.03125
v 0.09375 1 0.09375
v 0.09375 0.5 0.09375
v 0.09375 0.5 1.03125
v 0.09375 1 1.03125
v -0.03125 1 1.03125
v -0.03125 0.5 1.03125
v -0.03125 1 0.90625
v -0.03125 0.5 0.90625
v 0.09375 1 0.90625
v 0.09375 0.5 0.90625
v 1.03125 0.5 0.90625
v 1.03125 1 0.90625
v 1.03125 1 1.03125
v 1.03125 0.5 1.03125
v 0.90625 1 1.03125
v 0.90625 0.5 1.03125
v 0.90625 1 0.90625
v 0.90625 0.5 0.90625
v 0.90625 0.5 -0.03125
v 0.90625 1 -0.03125
v 1.03125 1 -0.03125
v 1.03125 0.5 -0.03125
v 1.03125 1 0.09375
v 1.03125 0.5 0.09375
v 0.90625 1 0.09375
v 0.90625 0.5 0.09375
vt 0.125 0.5
vt 0.125 1
vt 0 1
vt 0 0.5
vt 0.125 0.5
vt 0.125 1
vt 0 1
vt 0 0.5
vt 0.125 0.5
vt 0.125 1
vt 0 1
vt 0 0.5
vt 0.125 0.5
vt 0.125 1
vt 0 1
vt 0 0.5
vt 0 0.5
vt 0.125 0.5
vt 0.125 0.625
vt 0 0.625
vt 0 0.875
vt 0.125 0.875
vt 0.125 1
vt 0 1
vt 0.125 0.5
vt 0.125 1
vt 0 1
vt 0 0.5
vt 0.125 0.5
vt 0.125 1
vt 0 1
vt 0 0.5
vt 0.125 0.5
vt 0.125 1
vt 0 1
vt 0 0.5
vt 0.125 0.5
vt 0.125 1
vt 0 1
vt 0 0.5
vt 0 0.5
vt 0.125 0.5
vt 0.125 0.625
vt 0 0.625
vt 0 0.875
vt 0.125 0.875
vt 0.125 1
vt 0 1
vt 0.125 0.5
vt 0.125 1
vt 0 1
vt 0 0.5
vt 0.125 0.5
vt 0.125 1
vt 0 1
vt 0 0.5
vt 0.125 0.5
vt 0.125 1
vt 0 1
vt 0 0.5
vt 0.125 0.5
vt 0.125 1
vt 0 1
vt 0 0.5
vt 0 0.5
vt 0.125 0.5
vt 0.125 0.625
vt 0 0.625
vt 0 0.875
vt 0.125 0.875
vt 0.125 1
vt 0 1
vt 0.125 0.5
vt 0.125 1
vt 0 1
vt 0 0.5
vt 0.125 0.5
vt 0.125 1
vt 0 1
vt 0 0.5
vt 0.125 0.5
vt 0.125 1
vt 0 1
vt 0 0.5
vt 0.125 0.5
vt 0.125 1
vt 0 1
vt 0 0.5
vt 0 0.5
vt 0.125 0.5
vt 0.125 0.625
vt 0 0.625
vt 0 0.875
vt 0.125 0.875
vt 0.125 1
vt 0 1
vn -1 0 0
vn 0 0 -1
vn 1 0 0
vn 0 0 1
vn 0 -1 0
vn 0 1 0
vn 0 0 1
vn -1 0 0
vn 0 0 -1
vn 1 0 0
vn 0 -1 0
vn 0 1 0
vn 1 0 0
vn 0 0 1
vn -1 0 0
vn 0 0 -1
vn 0 -1 0
vn 0 1 0
vn 0 0 -1
vn 1 0 0
vn 0 0 1
vn -1 0 0
vn 0 -1 0
vn 0 1 0
usemtl m_0
f 1/1/1 2/2/1 3/3/1 4/4/1
f 4/5/2 3/6/2 5/7/2 6/8/2
f 6/9/3 5/10/3 7/11/3 8/12/3
f 8/13/4 7/14/4 2/15/4 1/16/4
f 4/17/5 6/18/5 8/19/5 1/20/5
f 5/21/6 3/22/6 2/23/6 7/24/6
f 9/25/7 10/26/7 11/27/7 12/28/7
f 12/29/8 11/30/8 13/31/8 14/32/8
f 14/33/9 13/34/9 15/35/9 16/36/9
f 16/37/10 15/38/10 10/39/10 9/40/10
f 12/41/11 14/42/11 16/43/11 9/44/11
f 13/45/12 11/46/12 10/47/12 15/48/12
f 17/49/13 18/50/13 19/51/13 20/52/13
f 20/53/14 19/54/14 21/55/14 22/56/14
f 22/57/15 21/58/15 23/59/15 24/60/15
f 24/61/16 23/62/16 18/63/16 17/64/16
f 20/65/17 22/66/17 24/67/17 17/68/17
f 21/69/18 19/70/18 18/71/18 23/72/18
f 25/73/19 26/74/19 27/75/19 28/76/19
f 28/77/20 27/78/20 29/79/20 30/80/20
f 30/81/21 29/82/21 31/83/21 32/84/21
f 32/85/22 31/86/22 26/87/22 25/88/22
f 28/89/23 30/90/23 32/91/23 25/92/23
f 29/93/24 27/94/24 26/95/24 31/96/24